{
  "accessors": [
    {
      "bufferView": 2,
      "componentType": 5126,
      "count": 5547,
      "max": [
        1.0777156352996826,
        0.7854710817337036,
        4.071213722229004
      ],
      "min": [
        -1.0777156352996826,
        -0.900985598564148,
        -4.470348358154297e-08
      ],
      "type": "VEC3"
    },
    {
      "bufferView": 2,
      "byteOffset": 66564,
      "componentType": 5126,
      "count": 5547,
      "max": [
        1.0,
        1.0,
        1.0
      ],
      "min": [
        -1.0,
        -1.0,
        -1.0
      ],
      "type": "VEC3"
    },
    {
      "bufferView": 3,
      "componentType": 5126,
      "count": 5547,
      "max": [
        1.0,
        1.0,
        1.0,
        1.0
      ],
      "min": [
        -1.0,
        -1.0,
        -1.0,
        -1.0
      ],
      "type": "VEC4"
    },
    {
      "bufferView": 1,
      "componentType": 5126,
      "count": 5547,
      "max": [
        0.9987512230873108,
        0.9952349066734314
      ],
      "min": [
        0.0034751114435493946,
        -0.6793924570083618
      ],
      "type": "VEC2"
    },
    {
      "bufferView": 1,
      "byteOffset": 44376,
      "componentType": 5126,
      "count": 5547,
      "max": [
        0.9987916946411133,
        0.9988258481025696
      ],
      "min": [
        0.0011720494367182255,
        0.001174628734588623
      ],
      "type": "VEC2"
    },
    {
      "bufferView": 1,
      "byteOffset": 88752,
      "componentType": 5126,
      "count": 5547,
      "max": [
        0.9987512230873108,
        0.9952349066734314
      ],
      "min": [
        0.0034751114435493946,
        -0.6793924570083618
      ],
      "type": "VEC2"
    },
    {
      "bufferView": 1,
      "byteOffset": 133128,
      "componentType": 5126,
      "count": 5547,
      "max": [
        0.9987512230873108,
        0.9952349066734314
      ],
      "min": [
        0.0034751114435493946,
        -0.6793924570083618
      ],
      "type": "VEC2"
    },
    {
      "bufferView": 1,
      "byteOffset": 177504,
      "componentType": 5126,
      "count": 5547,
      "max": [
        0.9987512230873108,
        0.9952349066734314
      ],
      "min": [
        0.0034751114435493946,
        -0.6793924570083618
      ],
      "type": "VEC2"
    },
    {
      "bufferView": 0,
      "componentType": 5125,
      "count": 20970,
      "type": "SCALAR"
    },
    {
      "bufferView": 2,
      "byteOffset": 133128,
      "componentType": 5126,
      "count": 4,
      "max": [
        0.609889566898346,
        -0.7953693270683289,
        3.9214391708374023
      ],
      "min": [
        -0.8668627738952637,
        -0.7953693866729736,
        2.2039356231689453
      ],
      "type": "VEC3"
    },
    {
      "bufferView": 2,
      "byteOffset": 133176,
      "componentType": 5126,
      "count": 4,
      "max": [
        0.0,
        -1.0,
        0.0
      ],
      "min": [
        0.0,
        -1.0,
        0.0
      ],
      "type": "VEC3"
    },
    {
      "bufferView": 1,
      "byteOffset": 221880,
      "componentType": 5126,
      "count": 4,
      "max": [
        1.0,
        1.0
      ],
      "min": [
        0.0,
        0.0
      ],
      "type": "VEC2"
    },
    {
      "bufferView": 1,
      "byteOffset": 221912,
      "componentType": 5126,
      "count": 4,
      "max": [
        0.16132959723472595,
        0.13516512513160706
      ],
      "min": [
        0.044588565826416016,
        0.01842409372329712
      ],
      "type": "VEC2"
    },
    {
      "bufferView": 0,
      "byteOffset": 83880,
      "componentType": 5125,
      "count": 6,
      "type": "SCALAR"
    },
    {
      "bufferView": 2,
      "byteOffset": 133224,
      "componentType": 5126,
      "count": 5564,
      "max": [
        1.0777194499969482,
        0.7854710817337036,
        4.071213722229004
      ],
      "min": [
        -1.077711820602417,
        -0.900985598564148,
        -4.470348358154297e-08
      ],
      "type": "VEC3"
    },
    {
      "bufferView": 2,
      "byteOffset": 199992,
      "componentType": 5126,
      "count": 5564,
      "max": [
        1.0,
        1.0,
        1.0
      ],
      "min": [
        -1.0,
        -1.0,
        -1.0
      ],
      "type": "VEC3"
    },
    {
      "bufferView": 3,
      "byteOffset": 88752,
      "componentType": 5126,
      "count": 5564,
      "max": [
        1.0,
        1.0,
        1.0,
        1.0
      ],
      "min": [
        -1.0,
        -1.0,
        -1.0,
        -1.0
      ],
      "type": "VEC4"
    },
    {
      "bufferView": 1,
      "byteOffset": 221944,
      "componentType": 5126,
      "count": 5564,
      "max": [
        0.9987512230873108,
        0.9952349066734314
      ],
      "min": [
        0.0034751114435493946,
        -0.6793924570083618
      ],
      "type": "VEC2"
    },
    {
      "bufferView": 1,
      "byteOffset": 266456,
      "componentType": 5126,
      "count": 5564,
      "max": [
        0.9981815814971924,
        0.9988051056861877
      ],
      "min": [
        0.0011946035083383322,
        0.0011985551100224257
      ],
      "type": "VEC2"
    },
    {
      "bufferView": 1,
      "byteOffset": 310968,
      "componentType": 5126,
      "count": 5564,
      "max": [
        0.9987512230873108,
        0.9952349066734314
      ],
      "min": [
        0.0034751114435493946,
        -0.6793924570083618
      ],
      "type": "VEC2"
    },
    {
      "bufferView": 1,
      "byteOffset": 355480,
      "componentType": 5126,
      "count": 5564,
      "max": [
        0.9987512230873108,
        0.9952349066734314
      ],
      "min": [
        0.0034751114435493946,
        -0.6793924570083618
      ],
      "type": "VEC2"
    },
    {
      "bufferView": 1,
      "byteOffset": 399992,
      "componentType": 5126,
      "count": 5564,
      "max": [
        0.9987512230873108,
        0.9952349066734314
      ],
      "min": [
        0.0034751114435493946,
        -0.6793924570083618
      ],
      "type": "VEC2"
    },
    {
      "bufferView": 0,
      "byteOffset": 83904,
      "componentType": 5125,
      "count": 21036,
      "type": "SCALAR"
    },
    {
      "bufferView": 2,
      "byteOffset": 266760,
      "componentType": 5126,
      "count": 4,
      "max": [
        0.6098933815956116,
        -0.7953693270683289,
        3.9214391708374023
      ],
      "min": [
        -0.866858959197998,
        -0.7953693866729736,
        2.2039356231689453
      ],
      "type": "VEC3"
    },
    {
      "bufferView": 2,
      "byteOffset": 266808,
      "componentType": 5126,
      "count": 4,
      "max": [
        0.0,
        -1.0,
        0.0
      ],
      "min": [
        0.0,
        -1.0,
        0.0
      ],
      "type": "VEC3"
    },
    {
      "bufferView": 1,
      "byteOffset": 444504,
      "componentType": 5126,
      "count": 4,
      "max": [
        -0.1851683259010315,
        0.4765958786010742
      ],
      "min": [
        -0.32116788625717163,
        0.3405963182449341
      ],
      "type": "VEC2"
    },
    {
      "bufferView": 1,
      "byteOffset": 444536,
      "componentType": 5126,
      "count": 4,
      "max": [
        0.1540994644165039,
        0.12742647528648376
      ],
      "min": [
        0.045444995164871216,
        0.018771976232528687
      ],
      "type": "VEC2"
    },
    {
      "bufferView": 0,
      "byteOffset": 168048,
      "componentType": 5125,
      "count": 6,
      "type": "SCALAR"
    }
  ],
  "asset": {
    "extras": {
      "author": "Spookyghostboo (https://sketchfab.com/spookyghostboo)",
      "license": "CC-BY-4.0 (http://creativecommons.org/licenses/by/4.0/)",
      "source": "https://sketchfab.com/3d-models/japanese-inspired-vending-machines-2b3638c2c2a64633a3e11d473152c909",
      "title": "Japanese Inspired Vending Machines"
    },
    "generator": "Sketchfab-16.16.0",
    "version": "2.0"
  },
  "bufferViews": [
    {
      "buffer": 0,
      "byteLength": 168072,
      "name": "floatBufferViews",
      "target": 34963
    },
    {
      "buffer": 0,
      "byteLength": 444568,
      "byteOffset": 168072,
      "byteStride": 8,
      "name": "floatBufferViews",
      "target": 34962
    },
    {
      "buffer": 0,
      "byteLength": 266856,
      "byteOffset": 612640,
      "byteStride": 12,
      "name": "floatBufferViews",
      "target": 34962
    },
    {
      "buffer": 0,
      "byteLength": 177776,
      "byteOffset": 879496,
      "byteStride": 16,
      "name": "floatBufferViews",
      "target": 34962
    }
  ],
  "buffers": [
    {
      "byteLength": 1057272,
      "uri": "scene.bin"
    }
  ],
  "extensionsUsed": [
    "KHR_materials_specular"
  ],
  "images": [
    {
      "uri": "textures/vending_machine_baseColor.png"
    },
    {
      "uri": "textures/vending_machine_metallicRoughness.png"
    },
    {
      "uri": "textures/vending_machine_emissive.png"
    },
    {
      "uri": "textures/vending_machine_normal.png"
    },
    {
      "uri": "textures/vending_machine.001_baseColor.png"
    },
    {
      "uri": "textures/vending_machine.001_metallicRoughness.png"
    }
  ],
  "materials": [
    {
      "doubleSided": true,
      "emissiveFactor": [
        1.0,
        1.0,
        1.0
      ],
      "emissiveTexture": {
        "index": 2
      },
      "name": "vending_machine",
      "normalTexture": {
        "index": 3
      },
      "pbrMetallicRoughness": {
        "baseColorTexture": {
          "index": 0
        },
        "metallicRoughnessTexture": {
          "index": 1
        }
      }
    },
    {
      "alphaMode": "BLEND",
      "doubleSided": true,
      "name": "glass",
      "pbrMetallicRoughness": {
        "baseColorFactor": [
          0.0652949,
          0.0652949,
          0.0652949,
          0.2605722226962977
        ],
        "metallicFactor": 0.5592397995879607,
        "roughnessFactor": 0.9588570174690056
      }
    },
    {
      "doubleSided": true,
      "emissiveFactor": [
        1.0,
        1.0,
        1.0
      ],
      "emissiveTexture": {
        "index": 2
      },
      "name": "vending_machine.001",
      "normalTexture": {
        "index": 3
      },
      "pbrMetallicRoughness": {
        "baseColorTexture": {
          "index": 4
        },
        "metallicRoughnessTexture": {
          "index": 5
        }
      }
    },
    {
      "alphaMode": "BLEND",
      "doubleSided": true,
      "extensions": {
        "KHR_materials_specular": {
          "specularColorFactor": [
            1.0,
            1.0,
            1.0
          ],
          "specularFactor": 0.43123940949153367
        }
      },
      "name": "glass.001",
      "pbrMetallicRoughness": {
        "baseColorFactor": [
          0.0652949,
          0.0652949,
          0.0652949,
          0.2605722226962977
        ],
        "metallicFactor": 0.5592397995879607,
        "roughnessFactor": 0.0
      }
    }
  ],
  "meshes": [
    {
      "name": "Vending_machine_1_vending machine_0",
      "primitives": [
        {
          "attributes": {
            "NORMAL": 1,
            "POSITION": 0,
            "TANGENT": 2,
            "TEXCOORD_0": 3,
            "TEXCOORD_1": 4,
            "TEXCOORD_2": 5,
            "TEXCOORD_3": 6,
            "TEXCOORD_4": 7
          },
          "indices": 8,
          "material": 0,
          "mode": 4
        }
      ]
    },
    {
      "name": "Vending_machine_1_glass_0",
      "primitives": [
        {
          "attributes": {
            "NORMAL": 10,
            "POSITION": 9,
            "TEXCOORD_0": 11,
            "TEXCOORD_1": 12
          },
          "indices": 13,
          "material": 1,
          "mode": 4
        }
      ]
    },
    {
      "name": "Vending_machine_2_vending machine.001_0",
      "primitives": [
        {
          "attributes": {
            "NORMAL": 15,
            "POSITION": 14,
            "TANGENT": 16,
            "TEXCOORD_0": 17,
            "TEXCOORD_1": 18,
            "TEXCOORD_2": 19,
            "TEXCOORD_3": 20,
            "TEXCOORD_4": 21
          },
          "indices": 22,
          "material": 2,
          "mode": 4
        }
      ]
    },
    {
      "name": "Vending_machine_2_glass.001_0",
      "primitives": [
        {
          "attributes": {
            "NORMAL": 24,
            "POSITION": 23,
            "TEXCOORD_0": 25,
            "TEXCOORD_1": 26
          },
          "indices": 27,
          "material": 3,
          "mode": 4
        }
      ]
    }
  ],
  "nodes": [
    {
      "children": [
        1
      ],
      "matrix": [
        1.0,
        0.0,
        0.0,
        0.0,
        0.0,
        2.220446049250313e-16,
        -1.0,
        0.0,
        0.0,
        1.0,
        2.220446049250313e-16,
        0.0,
        0.0,
        0.0,
        0.0,
        1.0
      ],
      "name": "Sketchfab_model"
    },
    {
      "children": [
        2
      ],
      "matrix": [
        0.009999999776482582,
        0.0,
        0.0,
        0.0,
        0.0,
        0.0,
        0.009999999776482582,
        0.0,
        0.0,
        -0.009999999776482582,
        0.0,
        0.0,
        0.0,
        0.0,
        0.0,
        1.0
      ],
      "name": "vending Machines.fbx"
    },
    {
      "children": [
        3,
        6
      ],
      "name": "RootNode"
    },
    {
      "children": [
        4,
        5
      ],
      "matrix": [
        4.397100903933472e-06,
        0.0,
        -58.24136734008771,
        0.0,
        -58.241367340086946,
        -9.488723148688522e-06,
        -4.397100900700427e-06,
        0.0,
        -9.488723155154612e-06,
        58.241367340087116,
        -7.11269977072789e-13,
        0.0,
        0.0,
        0.0,
        -73.04361724853516,
        1.0
      ],
      "name": "Vending_machine_1"
    },
    {
      "mesh": 0,
      "name": "Vending_machine_1_vending machine_0"
    },
    {
      "mesh": 1,
      "name": "Vending_machine_1_glass_0"
    },
    {
      "children": [
        7,
        8
      ],
      "matrix": [
        4.397100903933472e-06,
        0.0,
        -58.24136734008771,
        0.0,
        -58.241367340086946,
        -9.488723148688522e-06,
        -4.397100900700427e-06,
        0.0,
        -9.488723155154612e-06,
        58.241367340087116,
        -7.11269977072789e-13,
        0.0,
        0.0,
        0.0,
        72.68685913085938,
        1.0
      ],
      "name": "Vending_machine_2"
    },
    {
      "mesh": 2,
      "name": "Vending_machine_2_vending machine.001_0"
    },
    {
      "mesh": 3,
      "name": "Vending_machine_2_glass.001_0"
    }
  ],
  "samplers": [
    {
      "magFilter": 9729,
      "minFilter": 9987,
      "wrapS": 10497,
      "wrapT": 10497
    }
  ],
  "scene": 0,
  "scenes": [
    {
      "name": "Sketchfab_Scene",
      "nodes": [
        0
      ]
    }
  ],
  "textures": [
    {
      "sampler": 0,
      "source": 0
    },
    {
      "sampler": 0,
      "source": 1
    },
    {
      "sampler": 0,
      "source": 2
    },
    {
      "sampler": 0,
      "source": 3
    },
    {
      "sampler": 0,
      "source": 4
    },
    {
      "sampler": 0,
      "source": 5
    }
  ]
}
